<svg xmlns="http://www.w3.org/2000/svg" width="25" height="24" viewBox="0 0 25 24"><defs><style>.a,.b{fill:#fff;}.a{opacity:0.34;mix-blend-mode:overlay;isolation:isolate;}</style></defs><g transform="translate(0 -0.25)"><ellipse class="a" cx="12.5" cy="12" rx="12.5" ry="12" transform="translate(0 0.25)"/><path class="b" d="M266.4,396.007v-5.39h-.915v-1.6h.915v-.272a3.188,3.188,0,0,1,.886-2.345,2.834,2.834,0,0,1,1.93-.7,4.176,4.176,0,0,1,1.158.143l-.086,1.673a2.353,2.353,0,0,0-.7-.1c-.715,0-1.015.558-1.015,1.244v.357h1.4v1.6h-1.387v5.39Z" transform="translate(-255.627 -378.196)"/></g></svg>