<svg xmlns="http://www.w3.org/2000/svg" width="25" height="24" viewBox="0 0 25 24"><defs><style>.a,.c{fill:#fff;}.a{opacity:0.34;mix-blend-mode:overlay;isolation:isolate;}.b{fill:none;stroke:#fff;stroke-miterlimit:10;}</style></defs><g transform="translate(-0.25 -0.25)"><ellipse class="a" cx="12.5" cy="12" rx="12.5" ry="12" transform="translate(0.25 0.25)"/><g transform="translate(7.903 7.122)"><path class="b" d="M99.831,393.846H93.247a1.677,1.677,0,0,1-1.677-1.677v-6.584a1.677,1.677,0,0,1,1.677-1.677h6.584a1.677,1.677,0,0,1,1.677,1.677v6.584A1.677,1.677,0,0,1,99.831,393.846Z" transform="translate(-91.57 -383.908)"/><path class="b" d="M110.562,400.844A2.057,2.057,0,1,1,108.5,402.9a2.061,2.061,0,0,1,2.057-2.057Z" transform="translate(-105.592 -397.932)"/><path class="c" d="M134.143,390.865a.739.739,0,1,1-.739.739.74.74,0,0,1,.739-.739Z" transform="translate(-126.21 -389.669)"/></g></g></svg>