<svg xmlns="http://www.w3.org/2000/svg" width="25" height="24" viewBox="0 0 25 24"><defs><style>.a,.b{fill:#fff;}.a{stroke:#fff;}.b{opacity:0.42;mix-blend-mode:overlay;isolation:isolate;}</style></defs><g transform="translate(0.25 -0.25)"><path class="a" d="M436.846,384.983a3.862,3.862,0,0,1-1.23.319A2.369,2.369,0,0,0,436.655,384a4.72,4.72,0,0,1-1.5.573,2.363,2.363,0,0,0-4.022,2.153,6.7,6.7,0,0,1-4.866-2.467,2.363,2.363,0,0,0,.73,3.152,2.347,2.347,0,0,1-1.069-.3c0,.01,0,.02,0,.03a2.362,2.362,0,0,0,1.894,2.314,2.359,2.359,0,0,1-1.066.041,2.363,2.363,0,0,0,2.205,1.639,4.768,4.768,0,0,1-3.495.978s.87,1.2,3.909,1.624,8.27-1.631,6.418-7.585A4.117,4.117,0,0,0,436.846,384.983Z" transform="translate(-418.625 -376.121)"/><ellipse class="b" cx="12.5" cy="12" rx="12.5" ry="12" transform="translate(-0.25 0.25)"/></g></svg>