<svg xmlns="http://www.w3.org/2000/svg" width="50.922" height="50" viewBox="0 0 50.922 50"><defs><style>.a{fill:#c49966;}</style></defs><path class="a" d="M159.5,47.535A11.606,11.606,0,0,1,147.93,35.962c0-2.442,1.686-6.431,4.875-11.536,2.539-4.062,5.236-7.559,5.751-8.219L159.5,15l.943,1.21c.515.66,3.212,4.157,5.751,8.219,3.191,5.1,4.875,9.094,4.875,11.537A11.606,11.606,0,0,1,159.5,47.535Zm-.429-28.045a93,93,0,0,0-5.782,8.819c-1.969,3.479-2.968,6.055-2.968,7.654a9.177,9.177,0,0,0,18.354,0c0-3.417-4.713-11.01-8.749-16.473l-.426-.58Z" transform="translate(-134.04 -15)"/><rect class="a" width="50.922" height="2.394" transform="translate(0 34.666)"/><rect class="a" width="2.394" height="2.394" rx="1.197" transform="translate(0 40.689)"/><rect class="a" width="2.394" height="2.394" rx="1.197" transform="translate(3.458 47.606)"/><rect class="a" width="2.394" height="2.394" rx="1.197" transform="translate(6.915 40.689)"/><rect class="a" width="2.394" height="2.394" rx="1.197" transform="translate(9.705 47.606)"/><rect class="a" width="2.394" height="2.394" rx="1.197" transform="translate(12.94 40.689)"/><rect class="a" width="2.394" height="2.394" rx="1.197" transform="translate(16.176 47.606)"/><rect class="a" width="2.394" height="2.394" rx="1.197" transform="translate(19.41 40.689)"/><rect class="a" width="2.394" height="2.394" rx="1.197" transform="translate(22.646 47.606)"/><rect class="a" width="2.394" height="2.394" rx="1.197" transform="translate(25.881 40.689)"/><rect class="a" width="2.394" height="2.394" rx="1.197" transform="translate(25.881 20.108)"/><rect class="a" width="2.394" height="2.394" rx="1.197" transform="translate(29.117 47.606)"/><rect class="a" width="2.394" height="2.394" rx="1.197" transform="translate(32.351 40.689)"/><rect class="a" width="2.394" height="2.394" rx="1.197" transform="translate(35.587 47.606)"/><rect class="a" width="2.394" height="2.394" rx="1.197" transform="translate(38.822 40.689)"/><rect class="a" width="2.394" height="2.394" rx="1.197" transform="translate(41.612 47.606)"/><rect class="a" width="2.394" height="2.394" rx="1.197" transform="translate(45.069 40.689)"/><rect class="a" width="2.394" height="2.394" rx="1.197" transform="translate(48.528 47.606)"/><path class="a" d="M364.936,41.593V21.1l-3.6,4.118-1.8-1.575,6.6-7.547,6.6,7.547-1.8,1.575-3.6-4.118v20.49Z" transform="translate(-323.325 -15.975)"/><rect class="a" width="2.394" height="2.394" rx="1.197" transform="translate(41.612 27.957)"/><path class="a" d="M29.386,41.593V21.1l-3.6,4.118-1.8-1.575,6.6-7.547,6.6,7.547-1.8,1.575-3.6-4.118v20.49Z" transform="translate(-22.47 -15.975)"/><rect class="a" width="2.394" height="2.394" rx="1.197" transform="translate(6.915 27.957)"/></svg>