<svg xmlns="http://www.w3.org/2000/svg" width="52.571" height="50" viewBox="0 0 52.571 50"><defs><style>.a{fill:#c49966;}</style></defs><path class="a" d="M3.13,406.493V396.9H55.7v9.594Zm45.345-2.254h4.97v-5.081h-3.7Zm-7.413,0h5.086l1.271-5.081H42.332Zm-7.413,0h5.087l1.27-5.081H34.919Zm-7.412,0h5.086l1.27-5.081H27.508Zm-7.413,0h5.087l1.27-5.081H20.095Zm-7.282,0H16.5l1.27-5.081H12.813Zm-6.156,0H9.219l1.27-5.081h-5.1Z" transform="translate(-3.13 -356.493)"/><path class="a" d="M85.8,49.724l7.745-27.413h5.024l-.38-.665a5.867,5.867,0,1,1,10.19,0l-.38.665h5.024l7.745,27.413Zm2.981-2.256h29l-6.471-22.9H95.252Zm14.5-32.33a3.61,3.61,0,0,0-.591,7.171l.036.006h1.109l.036-.006a3.61,3.61,0,0,0-.591-7.171Z" transform="translate(-76.998 -12.87)"/><path class="a" d="M194.89,169.592l1.586-1.606,3.154,3.117V160.65h2.255v10.471l3.148-3.185,1.6,1.585L200.8,175.43Z" transform="translate(-174.472 -145.128)"/></svg>